<?xml version="1.0" encoding="utf-8"?>
<svg width="49.270813px" height="52.662537px" viewBox="0 0 49.270813 52.662537" version="1.1" xmlns:xlink="http://www.w3.org/1999/xlink" xmlns="http://www.w3.org/2000/svg">
  <defs>
    <filter filterUnits="userSpaceOnUse" color-interpolation-filters="sRGB" id="filter_1">
      <feFlood flood-opacity="0" result="BackgroundImageFix" />
      <feColorMatrix in="SourceAlpha" type="matrix" values="0 0 0 0 0 0 0 0 0 0 0 0 0 0 0 0 0 0 128 0" />
      <feOffset dx="0" dy="2" />
      <feGaussianBlur stdDeviation="2" />
      <feColorMatrix type="matrix" values="0 0 0 0 0.85490197 0 0 0 0 0.35686275 0 0 0 0 0.26666668 0 0 0 0.4392157 0" />
      <feBlend mode="normal" in2="BackgroundImageFix" result="effect0_dropShadow" />
      <feBlend mode="normal" in="SourceGraphic" in2="effect0_dropShadow" result="shape" />
    </filter>
  </defs>
  <g id="presentation-app-logo">
    <g filter="url(#filter_1)">
      <g id="Group" transform="translate(6.270813 0)">
        <path d="M30.9372 0C33.1466 0 34.9372 1.79056 34.9372 4L34.9372 30.7308C34.9372 32.9402 33.1466 34.7308 30.9372 34.7308L4 34.7308C1.79056 34.7308 0 32.9402 0 30.7308L0 4C0 1.79056 1.79056 0 4 0L30.9372 0Z" id="Rectangle-2" fill="#DF4023" stroke="none" />
        <path d="M30.9372 0C33.1466 0 34.9372 1.79056 34.9372 4L34.9372 30.7308C34.9372 32.9402 33.1466 34.7308 30.9372 34.7308L26.2029 34.7308L26.2029 0L30.9372 0Z" id="Rectangle-2-Copy-2" fill="#FF8670" stroke="none" />
        <path d="M34.9389 26.7716L34.9389 30.7522Q34.9389 30.9477 34.9198 31.1422Q34.9006 31.3367 34.8625 31.5284Q34.8243 31.7201 34.7676 31.9072Q34.7109 32.0942 34.6361 32.2748Q34.5613 32.4554 34.4691 32.6277Q34.377 32.8001 34.2684 32.9626Q34.1598 33.1252 34.0358 33.2762Q33.9118 33.4273 33.7736 33.5655Q33.6354 33.7038 33.4843 33.8278Q33.3332 33.9517 33.1707 34.0603Q33.0082 34.1689 32.8358 34.2611Q32.6634 34.3532 32.4829 34.428Q32.3023 34.5028 32.1152 34.5595Q31.9282 34.6163 31.7365 34.6544Q31.5448 34.6925 31.3503 34.7117Q31.1558 34.7309 30.9603 34.7309L3.97861 34.7309Q3.78315 34.7309 3.58864 34.7117Q3.39412 34.6925 3.20242 34.6544Q3.01072 34.6163 2.82368 34.5595Q2.63664 34.5028 2.45606 34.428Q2.27548 34.3532 2.10311 34.2611Q1.93073 34.1689 1.76821 34.0603Q1.6057 33.9517 1.45461 33.8277Q1.30352 33.7038 1.16531 33.5655Q1.0271 33.4273 0.903103 33.2762Q0.779106 33.1252 0.670516 32.9626Q0.561927 32.8001 0.469789 32.6277Q0.377651 32.4554 0.302853 32.2748Q0.228056 32.0942 0.171318 31.9072Q0.11458 31.7201 0.0764478 31.5284Q0.0383162 31.3367 0.0191581 31.1422Q0 30.9477 0 30.7522L0 26.7716L34.9389 26.7716Z" id="Rectangle-2-Copy-3" fill="#C11E00" fill-opacity="0.6313726" fill-rule="evenodd" stroke="none" />
        <g id="P" transform="translate(9.630188 4.484268)">
          <g id="P" fill="#FFFFFF">
            <path d="M1.20099 18.4063L1.20099 4.58807L6.6527 4.58807Q8.22479 4.58807 9.33132 5.18519Q10.4379 5.78232 11.0215 6.83825Q11.6051 7.89418 11.6051 9.2706Q11.6051 10.647 11.0114 11.6962Q10.4176 12.7454 9.29421 13.3358Q8.17081 13.9261 6.57848 13.9261L4.12251 13.9261L4.12251 18.4063L1.20099 18.4063ZM4.12251 11.5849L6.10618 11.5849Q7.36115 11.5849 7.97852 10.9405Q8.59588 10.2962 8.59588 9.2706Q8.59588 8.23828 7.97852 7.60742Q7.36115 6.97656 6.09268 6.97656L4.12251 6.97656L4.12251 11.5849Z" />
          </g>
        </g>
      </g>
    </g>
    <g id="Presentation" transform="translate(0 38.162537)">
      <g transform="translate(1.4339161, 0)" id="Presentation">
        <path d="M1.61 5.614L1.61 7.35L0.413 7.35L0.413 2.401L2.352 2.401Q3.234 2.401 3.696 2.8385Q4.158 3.276 4.158 4.018Q4.158 4.48 3.9515 4.8405Q3.745 5.201 3.339 5.4075Q2.933 5.614 2.352 5.614L1.61 5.614ZM2.219 4.655Q2.94 4.655 2.94 4.018Q2.94 3.367 2.219 3.367L1.61 3.367L1.61 4.655L2.219 4.655ZM5.943 4.179Q6.167 3.822 6.5205 3.612Q6.874 3.402 7.287 3.402L7.287 4.683L6.944 4.683Q6.468 4.683 6.2055 4.886Q5.943 5.089 5.943 5.572L5.943 7.35L4.746 7.35L4.746 3.444L5.943 3.444L5.943 4.179ZM11.501 5.292Q11.501 5.439 11.466 5.614L8.757 5.614Q8.778 6.055 8.981 6.2475Q9.184 6.44 9.499 6.44Q9.765 6.44 9.94 6.307Q10.115 6.174 10.171 5.964L11.438 5.964Q11.361 6.377 11.102 6.7025Q10.843 7.028 10.444 7.2135Q10.045 7.399 9.555 7.399Q8.981 7.399 8.5365 7.1575Q8.092 6.916 7.84 6.461Q7.588 6.006 7.588 5.397Q7.588 4.781 7.8365 4.3295Q8.085 3.878 8.533 3.6365Q8.981 3.395 9.555 3.395Q10.136 3.395 10.577 3.633Q11.018 3.871 11.2595 4.3015Q11.501 4.732 11.501 5.292ZM10.29 5.11Q10.297 4.725 10.0835 4.5325Q9.87 4.34 9.555 4.34Q9.226 4.34 9.009 4.536Q8.792 4.732 8.764 5.11L10.29 5.11ZM13.545 3.395Q14.287 3.395 14.7315 3.766Q15.176 4.137 15.288 4.746L14.168 4.746Q14.119 4.508 13.9475 4.3715Q13.776 4.235 13.517 4.235Q13.314 4.235 13.209 4.3225Q13.104 4.41 13.104 4.571Q13.104 4.753 13.2965 4.844Q13.489 4.935 13.902 5.026Q14.35 5.131 14.637 5.2395Q14.924 5.348 15.134 5.593Q15.344 5.838 15.344 6.251Q15.344 6.587 15.162 6.846Q14.98 7.105 14.637 7.252Q14.294 7.399 13.825 7.399Q13.034 7.399 12.558 7.049Q12.082 6.699 11.977 6.048L13.132 6.048Q13.16 6.3 13.3455 6.433Q13.531 6.566 13.825 6.566Q14.028 6.566 14.133 6.4715Q14.238 6.377 14.238 6.223Q14.238 6.02 14.0455 5.9325Q13.853 5.845 13.419 5.747Q12.985 5.656 12.705 5.551Q12.425 5.446 12.222 5.2115Q12.019 4.977 12.019 4.571Q12.019 4.046 12.418 3.7205Q12.817 3.395 13.545 3.395ZM19.719 5.292Q19.719 5.439 19.684 5.614L16.975 5.614Q16.996 6.055 17.199 6.2475Q17.402 6.44 17.717 6.44Q17.983 6.44 18.158 6.307Q18.333 6.174 18.389 5.964L19.656 5.964Q19.579 6.377 19.32 6.7025Q19.061 7.028 18.662 7.2135Q18.263 7.399 17.773 7.399Q17.199 7.399 16.7545 7.1575Q16.31 6.916 16.058 6.461Q15.806 6.006 15.806 5.397Q15.806 4.781 16.0545 4.3295Q16.303 3.878 16.751 3.6365Q17.199 3.395 17.773 3.395Q18.354 3.395 18.795 3.633Q19.236 3.871 19.4775 4.3015Q19.719 4.732 19.719 5.292ZM18.508 5.11Q18.515 4.725 18.3015 4.5325Q18.088 4.34 17.773 4.34Q17.444 4.34 17.227 4.536Q17.01 4.732 16.982 5.11L18.508 5.11ZM22.82 3.402Q23.492 3.402 23.8875 3.85Q24.283 4.298 24.283 5.082L24.283 7.35L23.086 7.35L23.086 5.222Q23.086 4.83 22.8795 4.6095Q22.673 4.389 22.33 4.389Q21.966 4.389 21.7525 4.62Q21.539 4.851 21.539 5.278L21.539 7.35L20.342 7.35L20.342 3.444L21.539 3.444L21.539 4.158Q21.707 3.808 22.0395 3.605Q22.372 3.402 22.82 3.402ZM27.286 6.321L27.286 7.35L26.747 7.35Q26.061 7.35 25.6795 7.0105Q25.298 6.671 25.298 5.887L25.298 4.452L24.773 4.452L24.773 3.444L25.298 3.444L25.298 2.485L26.495 2.485L26.495 3.444L27.279 3.444L27.279 4.452L26.495 4.452L26.495 5.908Q26.495 6.139 26.5895 6.23Q26.684 6.321 26.908 6.321L27.286 6.321ZM29.442 3.395Q29.89 3.395 30.212 3.598Q30.534 3.801 30.688 4.151L30.688 3.444L31.878 3.444L31.878 7.35L30.688 7.35L30.688 6.643Q30.534 6.993 30.212 7.196Q29.89 7.399 29.442 7.399Q28.959 7.399 28.5775 7.1575Q28.196 6.916 27.9755 6.461Q27.755 6.006 27.755 5.397Q27.755 4.781 27.9755 4.3295Q28.196 3.878 28.5775 3.6365Q28.959 3.395 29.442 3.395ZM29.827 4.445Q29.442 4.445 29.2075 4.697Q28.973 4.949 28.973 5.397Q28.973 5.845 29.2075 6.097Q29.442 6.349 29.827 6.349Q30.205 6.349 30.4465 6.09Q30.688 5.831 30.688 5.397Q30.688 4.956 30.4465 4.7005Q30.205 4.445 29.827 4.445ZM34.916 6.321L34.916 7.35L34.377 7.35Q33.691 7.35 33.3095 7.0105Q32.928 6.671 32.928 5.887L32.928 4.452L32.403 4.452L32.403 3.444L32.928 3.444L32.928 2.485L34.125 2.485L34.125 3.444L34.909 3.444L34.909 4.452L34.125 4.452L34.125 5.908Q34.125 6.139 34.2195 6.23Q34.314 6.321 34.538 6.321L34.916 6.321ZM35.476 2.345Q35.476 2.072 35.672 1.8935Q35.868 1.715 36.19 1.715Q36.512 1.715 36.708 1.8935Q36.904 2.072 36.904 2.345Q36.904 2.611 36.708 2.7895Q36.512 2.968 36.19 2.968Q35.868 2.968 35.672 2.7895Q35.476 2.611 35.476 2.345ZM36.785 3.444L36.785 7.35L35.588 7.35L35.588 3.444L36.785 3.444ZM39.438 3.395Q40.019 3.395 40.4775 3.6365Q40.936 3.878 41.1985 4.333Q41.461 4.788 41.461 5.397Q41.461 6.006 41.1985 6.461Q40.936 6.916 40.4775 7.1575Q40.019 7.399 39.438 7.399Q38.857 7.399 38.395 7.1575Q37.933 6.916 37.6705 6.461Q37.408 6.006 37.408 5.397Q37.408 4.788 37.6705 4.333Q37.933 3.878 38.395 3.6365Q38.857 3.395 39.438 3.395ZM39.438 4.431Q39.095 4.431 38.8605 4.6795Q38.626 4.928 38.626 5.397Q38.626 5.866 38.8605 6.111Q39.095 6.356 39.438 6.356Q39.781 6.356 40.012 6.111Q40.243 5.866 40.243 5.397Q40.243 4.928 40.012 4.6795Q39.781 4.431 39.438 4.431ZM44.562 3.402Q45.234 3.402 45.6295 3.85Q46.025 4.298 46.025 5.082L46.025 7.35L44.828 7.35L44.828 5.222Q44.828 4.83 44.6215 4.6095Q44.415 4.389 44.072 4.389Q43.708 4.389 43.4945 4.62Q43.281 4.851 43.281 5.278L43.281 7.35L42.084 7.35L42.084 3.444L43.281 3.444L43.281 4.158Q43.449 3.808 43.7815 3.605Q44.114 3.402 44.562 3.402Z" />
      </g>
    </g>
  </g>
</svg>