<?xml version="1.0" encoding="utf-8"?>
<svg width="49.270813px" height="52.662537px" viewBox="0 0 49.270813 52.662537" version="1.1" xmlns:xlink="http://www.w3.org/1999/xlink" xmlns="http://www.w3.org/2000/svg">
  <defs>
    <filter filterUnits="userSpaceOnUse" color-interpolation-filters="sRGB" id="filter_1">
      <feFlood flood-opacity="0" result="BackgroundImageFix" />
      <feColorMatrix in="SourceAlpha" type="matrix" values="0 0 0 0 0 0 0 0 0 0 0 0 0 0 0 0 0 0 128 0" />
      <feOffset dx="0" dy="2" />
      <feGaussianBlur stdDeviation="2" />
      <feColorMatrix type="matrix" values="0 0 0 0 0.105882354 0 0 0 0 0.5372549 0 0 0 0 0.38039216 0 0 0 0.4 0" />
      <feBlend mode="normal" in2="BackgroundImageFix" result="effect0_dropShadow" />
      <feBlend mode="normal" in="SourceGraphic" in2="effect0_dropShadow" result="shape" />
    </filter>
    <path d="M0 0L18 0L18 23L0 23L0 0Z" id="path_1" />
    <clipPath id="clip_1">
      <use xlink:href="#path_1" />
    </clipPath>
  </defs>
  <g id="spreadsheet-app-logo">
    <path d="M37.208 0C39.4174 0 41.208 1.79056 41.208 4L41.208 30.7308C41.208 32.9402 39.4174 34.7308 37.208 34.7308L10.2708 34.7308C8.06137 34.7308 6.27081 32.9402 6.27081 30.7308L6.27081 4C6.27081 1.79056 8.06137 0 10.2708 0L37.208 0Z" id="Rectangle-2" fill="#109968" stroke="none" />
    <g filter="url(#filter_1)">
      <g id="Group" transform="translate(6.270813 0)">
        <path d="M30.9372 0C33.1466 0 34.9372 1.79056 34.9372 4L34.9372 30.7308C34.9372 32.9402 33.1466 34.7308 30.9372 34.7308L26.2029 34.7308L26.2029 0L30.9372 0Z" id="Rectangle-2-Copy-2" fill="#00CE84" stroke="none" />
        <path d="M34.9389 26.7716L34.9389 30.7522Q34.9389 30.9477 34.9198 31.1422Q34.9006 31.3367 34.8625 31.5284Q34.8243 31.7201 34.7676 31.9072Q34.7109 32.0942 34.6361 32.2748Q34.5613 32.4554 34.4691 32.6277Q34.377 32.8001 34.2684 32.9626Q34.1598 33.1252 34.0358 33.2762Q33.9118 33.4273 33.7736 33.5655Q33.6354 33.7038 33.4843 33.8278Q33.3332 33.9517 33.1707 34.0603Q33.0082 34.1689 32.8358 34.2611Q32.6634 34.3532 32.4829 34.428Q32.3023 34.5028 32.1152 34.5595Q31.9282 34.6163 31.7365 34.6544Q31.5448 34.6925 31.3503 34.7117Q31.1558 34.7309 30.9603 34.7309L3.97861 34.7309Q3.78315 34.7309 3.58864 34.7117Q3.39412 34.6925 3.20242 34.6544Q3.01072 34.6163 2.82368 34.5595Q2.63664 34.5028 2.45606 34.428Q2.27548 34.3532 2.10311 34.2611Q1.93073 34.1689 1.76821 34.0603Q1.6057 33.9517 1.45461 33.8277Q1.30352 33.7038 1.16531 33.5655Q1.0271 33.4273 0.903103 33.2762Q0.779106 33.1252 0.670516 32.9626Q0.561927 32.8001 0.469789 32.6277Q0.377651 32.4554 0.302853 32.2748Q0.228056 32.0942 0.171318 31.9072Q0.11458 31.7201 0.0764478 31.5284Q0.0383162 31.3367 0.0191581 31.1422Q0 30.9477 0 30.7522L0 26.7716L34.9389 26.7716Z" id="Rectangle-2-Copy-3" fill="#00774D" fill-opacity="0.6313726" fill-rule="evenodd" stroke="none" />
        <g id="S" clip-path="url(#clip_1)" transform="translate(8.734314 3.3585815)">
          <g id="S" fill="#FFFFFF">
            <path d="M8.69709 8.56214Q8.61612 7.74574 7.99876 7.29368Q7.38139 6.84162 6.33558 6.84162Q5.26278 6.84162 4.68928 7.28018Q4.11577 7.71875 4.11577 8.38672Q4.10227 9.12891 4.75337 9.51012Q5.40447 9.89134 6.30185 10.1005L7.54332 10.3974Q8.74432 10.6673 9.6788 11.18Q10.6133 11.6928 11.1497 12.4991Q11.6861 13.3054 11.6861 14.4592Q11.6793 16.3551 10.2658 17.4785Q8.85227 18.6019 6.32209 18.6019Q3.8054 18.6019 2.30753 17.4549Q0.809659 16.3079 0.755682 14.0678L3.58274 14.0678Q3.65696 15.1069 4.40252 15.6298Q5.14808 16.1527 6.28835 16.1527Q7.40163 16.1527 8.06623 15.6804Q8.73082 15.2081 8.73757 14.4524Q8.73082 13.7507 8.12358 13.3729Q7.51633 12.995 6.38956 12.7251L4.88494 12.3473Q3.13743 11.929 2.12536 11.0181Q1.11328 10.1072 1.12003 8.58239Q1.11328 7.32741 1.79137 6.38619Q2.46946 5.44496 3.65696 4.92205Q4.84446 4.39915 6.35582 4.39915Q7.89418 4.39915 9.04457 4.92543Q10.195 5.45171 10.8359 6.38956Q11.4769 7.32741 11.4972 8.56214L8.69709 8.56214Z" />
          </g>
        </g>
      </g>
    </g>
    <g id="Spreadsheet" transform="translate(0 38.162537)">
      <g transform="translate(1.6334152, 0)" id="Spreadsheet">
        <path d="M3.969 5.957Q3.969 6.349 3.7695 6.678Q3.57 7.007 3.1815 7.203Q2.793 7.399 2.24 7.399Q1.407 7.399 0.868 6.993Q0.329 6.587 0.28 5.859L1.554 5.859Q1.582 6.139 1.7535 6.3Q1.925 6.461 2.191 6.461Q2.422 6.461 2.555 6.335Q2.688 6.209 2.688 5.999Q2.688 5.81 2.5655 5.684Q2.443 5.558 2.261 5.4775Q2.079 5.397 1.757 5.285Q1.288 5.124 0.9905 4.9735Q0.693 4.823 0.4795 4.5255Q0.266 4.228 0.266 3.752Q0.266 3.311 0.49 2.989Q0.714 2.667 1.1095 2.4955Q1.505 2.324 2.016 2.324Q2.842 2.324 3.3285 2.716Q3.815 3.108 3.878 3.794L2.583 3.794Q2.548 3.549 2.4045 3.4055Q2.261 3.262 2.016 3.262Q1.806 3.262 1.6765 3.374Q1.547 3.486 1.547 3.703Q1.547 3.878 1.6625 4.0005Q1.778 4.123 1.953 4.2Q2.128 4.277 2.457 4.396Q2.933 4.557 3.234 4.7145Q3.535 4.872 3.752 5.173Q3.969 5.474 3.969 5.957ZM7.07 3.395Q7.553 3.395 7.9345 3.6365Q8.316 3.878 8.5365 4.3295Q8.757 4.781 8.757 5.397Q8.757 6.006 8.5365 6.461Q8.316 6.916 7.9345 7.1575Q7.553 7.399 7.07 7.399Q6.622 7.399 6.3 7.196Q5.978 6.993 5.831 6.643L5.831 9.212L4.634 9.212L4.634 3.444L5.831 3.444L5.831 4.151Q5.978 3.801 6.3 3.598Q6.622 3.395 7.07 3.395ZM6.685 4.445Q6.307 4.445 6.0655 4.7005Q5.824 4.956 5.824 5.397Q5.824 5.831 6.0655 6.09Q6.307 6.349 6.685 6.349Q7.07 6.349 7.3045 6.097Q7.539 5.845 7.539 5.397Q7.539 4.949 7.3045 4.697Q7.07 4.445 6.685 4.445ZM10.577 4.179Q10.801 3.822 11.1545 3.612Q11.508 3.402 11.921 3.402L11.921 4.683L11.578 4.683Q11.102 4.683 10.8395 4.886Q10.577 5.089 10.577 5.572L10.577 7.35L9.38 7.35L9.38 3.444L10.577 3.444L10.577 4.179ZM16.135 5.292Q16.135 5.439 16.1 5.614L13.391 5.614Q13.412 6.055 13.615 6.2475Q13.818 6.44 14.133 6.44Q14.399 6.44 14.574 6.307Q14.749 6.174 14.805 5.964L16.072 5.964Q15.995 6.377 15.736 6.7025Q15.477 7.028 15.078 7.2135Q14.679 7.399 14.189 7.399Q13.615 7.399 13.1705 7.1575Q12.726 6.916 12.474 6.461Q12.222 6.006 12.222 5.397Q12.222 4.781 12.4705 4.3295Q12.719 3.878 13.167 3.6365Q13.615 3.395 14.189 3.395Q14.77 3.395 15.211 3.633Q15.652 3.871 15.8935 4.3015Q16.135 4.732 16.135 5.292ZM14.924 5.11Q14.931 4.725 14.7175 4.5325Q14.504 4.34 14.189 4.34Q13.86 4.34 13.643 4.536Q13.426 4.732 13.398 5.11L14.924 5.11ZM18.242 3.395Q18.69 3.395 19.012 3.598Q19.334 3.801 19.488 4.151L19.488 3.444L20.678 3.444L20.678 7.35L19.488 7.35L19.488 6.643Q19.334 6.993 19.012 7.196Q18.69 7.399 18.242 7.399Q17.759 7.399 17.3775 7.1575Q16.996 6.916 16.7755 6.461Q16.555 6.006 16.555 5.397Q16.555 4.781 16.7755 4.3295Q16.996 3.878 17.3775 3.6365Q17.759 3.395 18.242 3.395ZM18.627 4.445Q18.242 4.445 18.0075 4.697Q17.773 4.949 17.773 5.397Q17.773 5.845 18.0075 6.097Q18.242 6.349 18.627 6.349Q19.005 6.349 19.2465 6.09Q19.488 5.831 19.488 5.397Q19.488 4.956 19.2465 4.7005Q19.005 4.445 18.627 4.445ZM22.988 3.395Q23.436 3.395 23.758 3.598Q24.08 3.801 24.227 4.151L24.227 2.17L25.424 2.17L25.424 7.35L24.227 7.35L24.227 6.643Q24.08 6.993 23.758 7.196Q23.436 7.399 22.988 7.399Q22.505 7.399 22.1235 7.1575Q21.742 6.916 21.5215 6.461Q21.301 6.006 21.301 5.397Q21.301 4.781 21.5215 4.3295Q21.742 3.878 22.1235 3.6365Q22.505 3.395 22.988 3.395ZM23.373 4.445Q22.988 4.445 22.7535 4.697Q22.519 4.949 22.519 5.397Q22.519 5.845 22.7535 6.097Q22.988 6.349 23.373 6.349Q23.751 6.349 23.9925 6.09Q24.234 5.831 24.234 5.397Q24.234 4.956 23.9925 4.7005Q23.751 4.445 23.373 4.445ZM27.671 3.395Q28.413 3.395 28.8575 3.766Q29.302 4.137 29.414 4.746L28.294 4.746Q28.245 4.508 28.0735 4.3715Q27.902 4.235 27.643 4.235Q27.44 4.235 27.335 4.3225Q27.23 4.41 27.23 4.571Q27.23 4.753 27.4225 4.844Q27.615 4.935 28.028 5.026Q28.476 5.131 28.763 5.2395Q29.05 5.348 29.26 5.593Q29.47 5.838 29.47 6.251Q29.47 6.587 29.288 6.846Q29.106 7.105 28.763 7.252Q28.42 7.399 27.951 7.399Q27.16 7.399 26.684 7.049Q26.208 6.699 26.103 6.048L27.258 6.048Q27.286 6.3 27.4715 6.433Q27.657 6.566 27.951 6.566Q28.154 6.566 28.259 6.4715Q28.364 6.377 28.364 6.223Q28.364 6.02 28.1715 5.9325Q27.979 5.845 27.545 5.747Q27.111 5.656 26.831 5.551Q26.551 5.446 26.348 5.2115Q26.145 4.977 26.145 4.571Q26.145 4.046 26.544 3.7205Q26.943 3.395 27.671 3.395ZM32.613 3.402Q33.285 3.402 33.6805 3.85Q34.076 4.298 34.076 5.082L34.076 7.35L32.879 7.35L32.879 5.222Q32.879 4.83 32.6725 4.6095Q32.466 4.389 32.123 4.389Q31.759 4.389 31.5455 4.62Q31.332 4.851 31.332 5.278L31.332 7.35L30.135 7.35L30.135 2.17L31.332 2.17L31.332 4.158Q31.5 3.808 31.8325 3.605Q32.165 3.402 32.613 3.402ZM38.577 5.292Q38.577 5.439 38.542 5.614L35.833 5.614Q35.854 6.055 36.057 6.2475Q36.26 6.44 36.575 6.44Q36.841 6.44 37.016 6.307Q37.191 6.174 37.247 5.964L38.514 5.964Q38.437 6.377 38.178 6.7025Q37.919 7.028 37.52 7.2135Q37.121 7.399 36.631 7.399Q36.057 7.399 35.6125 7.1575Q35.168 6.916 34.916 6.461Q34.664 6.006 34.664 5.397Q34.664 4.781 34.9125 4.3295Q35.161 3.878 35.609 3.6365Q36.057 3.395 36.631 3.395Q37.212 3.395 37.653 3.633Q38.094 3.871 38.3355 4.3015Q38.577 4.732 38.577 5.292ZM37.366 5.11Q37.373 4.725 37.1595 4.5325Q36.946 4.34 36.631 4.34Q36.302 4.34 36.085 4.536Q35.868 4.732 35.84 5.11L37.366 5.11ZM42.91 5.292Q42.91 5.439 42.875 5.614L40.166 5.614Q40.187 6.055 40.39 6.2475Q40.593 6.44 40.908 6.44Q41.174 6.44 41.349 6.307Q41.524 6.174 41.58 5.964L42.847 5.964Q42.77 6.377 42.511 6.7025Q42.252 7.028 41.853 7.2135Q41.454 7.399 40.964 7.399Q40.39 7.399 39.9455 7.1575Q39.501 6.916 39.249 6.461Q38.997 6.006 38.997 5.397Q38.997 4.781 39.2455 4.3295Q39.494 3.878 39.942 3.6365Q40.39 3.395 40.964 3.395Q41.545 3.395 41.986 3.633Q42.427 3.871 42.6685 4.3015Q42.91 4.732 42.91 5.292ZM41.699 5.11Q41.706 4.725 41.4925 4.5325Q41.279 4.34 40.964 4.34Q40.635 4.34 40.418 4.536Q40.201 4.732 40.173 5.11L41.699 5.11ZM45.745 6.321L45.745 7.35L45.206 7.35Q44.52 7.35 44.1385 7.0105Q43.757 6.671 43.757 5.887L43.757 4.452L43.232 4.452L43.232 3.444L43.757 3.444L43.757 2.485L44.954 2.485L44.954 3.444L45.738 3.444L45.738 4.452L44.954 4.452L44.954 5.908Q44.954 6.139 45.0485 6.23Q45.143 6.321 45.367 6.321L45.745 6.321Z" />
      </g>
    </g>
  </g>
</svg>