<?xml version="1.0" encoding="utf-8"?>
<svg width="46.938904px" height="53.02086px" viewBox="0 0 46.938904 53.02086" version="1.1" xmlns:xlink="http://www.w3.org/1999/xlink" xmlns="http://www.w3.org/2000/svg">
  <defs>
    <filter filterUnits="userSpaceOnUse" color-interpolation-filters="sRGB" id="filter_1">
      <feFlood flood-opacity="0" result="BackgroundImageFix" />
      <feColorMatrix in="SourceAlpha" type="matrix" values="0 0 0 0 0 0 0 0 0 0 0 0 0 0 0 0 0 0 128 0" />
      <feOffset dx="0" dy="2" />
      <feGaussianBlur stdDeviation="2" />
      <feColorMatrix type="matrix" values="0 0 0 0 0.45490196 0 0 0 0 0.57254905 0 0 0 0 1 0 0 0 0.4392157 0" />
      <feBlend mode="normal" in2="BackgroundImageFix" result="effect0_dropShadow" />
      <feBlend mode="normal" in="SourceGraphic" in2="effect0_dropShadow" result="shape" />
    </filter>
  </defs>
  <g id="writer-app-logo">
    <g filter="url(#filter_1)">
      <g id="Group">
        <path d="M30.9372 0C33.1466 0 34.9372 1.79056 34.9372 4L34.9372 30.7308C34.9372 32.9402 33.1466 34.7308 30.9372 34.7308L4 34.7308C1.79056 34.7308 0 32.9402 0 30.7308L0 4C0 1.79056 1.79056 0 4 0L30.9372 0Z" id="Rectangle-2" fill="#3B64FC" stroke="none" />
        <path d="M30.9372 0C33.1466 0 34.9372 1.79056 34.9372 4L34.9372 30.7308C34.9372 32.9402 33.1466 34.7308 30.9372 34.7308L26.2029 34.7308L26.2029 0L30.9372 0Z" id="Rectangle-2-Copy-2" fill="#7492FF" stroke="none" />
        <path d="M34.9389 26.7716L34.9389 30.7522Q34.9389 30.9477 34.9198 31.1422Q34.9006 31.3367 34.8625 31.5284Q34.8243 31.7201 34.7676 31.9072Q34.7109 32.0942 34.6361 32.2748Q34.5613 32.4554 34.4691 32.6277Q34.377 32.8001 34.2684 32.9626Q34.1598 33.1252 34.0358 33.2762Q33.9118 33.4273 33.7736 33.5655Q33.6354 33.7038 33.4843 33.8278Q33.3332 33.9517 33.1707 34.0603Q33.0082 34.1689 32.8358 34.2611Q32.6634 34.3532 32.4829 34.428Q32.3023 34.5028 32.1152 34.5595Q31.9282 34.6163 31.7365 34.6544Q31.5448 34.6925 31.3503 34.7117Q31.1558 34.7309 30.9603 34.7309L3.97861 34.7309Q3.78315 34.7309 3.58864 34.7117Q3.39412 34.6925 3.20242 34.6544Q3.01072 34.6163 2.82368 34.5595Q2.63664 34.5028 2.45606 34.428Q2.27548 34.3532 2.1031 34.2611Q1.93073 34.1689 1.76821 34.0603Q1.6057 33.9517 1.45461 33.8277Q1.30352 33.7038 1.16531 33.5655Q1.0271 33.4273 0.903102 33.2762Q0.779106 33.1252 0.670516 32.9626Q0.561926 32.8001 0.469789 32.6277Q0.377651 32.4554 0.302853 32.2748Q0.228056 32.0942 0.171318 31.9072Q0.114579 31.7201 0.0764478 31.5284Q0.0383162 31.3367 0.0191581 31.1422Q0 30.9477 0 30.7522L0 26.7716L34.9389 26.7716Z" id="Rectangle-2-Copy-3" fill="#002BC9" fill-opacity="0.6313726" fill-rule="evenodd" stroke="none" />
        <g id="W" transform="translate(4.151001 4.3585815)">
          <g id="W" fill="#FFFFFF">
            <path d="M4.31143 18.4063L0.357599 4.58807L3.54901 4.58807L5.83629 14.1893L5.95099 14.1893L8.47443 4.58807L11.207 4.58807L13.7237 14.2095L13.8452 14.2095L16.1325 4.58807L19.3239 4.58807L15.37 18.4063L12.5227 18.4063L9.89134 9.3718L9.78338 9.3718L7.15874 18.4063L4.31143 18.4063Z" />
          </g>
        </g>
      </g>
    </g>
    <g id="Writer" transform="translate(5.375 38.52086)">
      <g transform="translate(0.30233192, 0)" id="Writer">
        <path d="M7.14 2.401L5.957 7.35L4.473 7.35L3.682 4.039L2.884 7.35L1.4 7.35L0.217 2.401L1.519 2.401L2.156 5.985L3.024 2.401L4.333 2.401L5.201 5.985L5.845 2.401L7.14 2.401ZM8.967 4.179Q9.191 3.822 9.5445 3.612Q9.898 3.402 10.311 3.402L10.311 4.683L9.968 4.683Q9.492 4.683 9.2295 4.886Q8.967 5.089 8.967 5.572L8.967 7.35L7.77 7.35L7.77 3.444L8.967 3.444L8.967 4.179ZM10.703 2.345Q10.703 2.072 10.899 1.8935Q11.095 1.715 11.417 1.715Q11.739 1.715 11.935 1.8935Q12.131 2.072 12.131 2.345Q12.131 2.611 11.935 2.7895Q11.739 2.968 11.417 2.968Q11.095 2.968 10.899 2.7895Q10.703 2.611 10.703 2.345ZM12.012 3.444L12.012 7.35L10.815 7.35L10.815 3.444L12.012 3.444ZM15.05 6.321L15.05 7.35L14.511 7.35Q13.825 7.35 13.4435 7.0105Q13.062 6.671 13.062 5.887L13.062 4.452L12.537 4.452L12.537 3.444L13.062 3.444L13.062 2.485L14.259 2.485L14.259 3.444L15.043 3.444L15.043 4.452L14.259 4.452L14.259 5.908Q14.259 6.139 14.3535 6.23Q14.448 6.321 14.672 6.321L15.05 6.321ZM19.432 5.292Q19.432 5.439 19.397 5.614L16.688 5.614Q16.709 6.055 16.912 6.2475Q17.115 6.44 17.43 6.44Q17.696 6.44 17.871 6.307Q18.046 6.174 18.102 5.964L19.369 5.964Q19.292 6.377 19.033 6.7025Q18.774 7.028 18.375 7.2135Q17.976 7.399 17.486 7.399Q16.912 7.399 16.4675 7.1575Q16.023 6.916 15.771 6.461Q15.519 6.006 15.519 5.397Q15.519 4.781 15.7675 4.3295Q16.016 3.878 16.464 3.6365Q16.912 3.395 17.486 3.395Q18.067 3.395 18.508 3.633Q18.949 3.871 19.1905 4.3015Q19.432 4.732 19.432 5.292ZM18.221 5.11Q18.228 4.725 18.0145 4.5325Q17.801 4.34 17.486 4.34Q17.157 4.34 16.94 4.536Q16.723 4.732 16.695 5.11L18.221 5.11ZM21.252 4.179Q21.476 3.822 21.8295 3.612Q22.183 3.402 22.596 3.402L22.596 4.683L22.253 4.683Q21.777 4.683 21.5145 4.886Q21.252 5.089 21.252 5.572L21.252 7.35L20.055 7.35L20.055 3.444L21.252 3.444L21.252 4.179Z" />
      </g>
    </g>
  </g>
</svg>