<svg xmlns="http://www.w3.org/2000/svg" xmlns:xlink="http://www.w3.org/1999/xlink" viewBox="0 0 28.36 26.82"><defs><style>.cls-1{fill:#f4faff;stroke:#f4f5ff;stroke-miterlimit:10;}.cls-2{fill:url(#linear-gradient);}.cls-3{fill:#f5f5ff;}.cls-4{fill:url(#linear-gradient-2);}</style><linearGradient id="linear-gradient" x1="7.52" y1="13.25" x2="20.28" y2="13.25" gradientUnits="userSpaceOnUse"><stop offset="0" stop-color="#29abe2"/><stop offset="1"/></linearGradient><linearGradient id="linear-gradient-2" x1="9.91" y1="13.47" x2="17.6" y2="20.56" gradientUnits="userSpaceOnUse"><stop offset="0"/><stop offset="0.07" stop-color="#2c0a07"/><stop offset="0.15" stop-color="#59140e"/><stop offset="0.24" stop-color="#811c14"/><stop offset="0.33" stop-color="#a22419"/><stop offset="0.43" stop-color="#be2a1d"/><stop offset="0.53" stop-color="#d32e20"/><stop offset="0.65" stop-color="#e23122"/><stop offset="0.79" stop-color="#ea3324"/><stop offset="1" stop-color="#ed3424"/></linearGradient></defs><g id="Layer_2" data-name="Layer 2"><g id="Layer_1-2" data-name="Layer 1"><g id="logo-white-small"><rect class="cls-1" x="0.5" y="0.5" width="27.36" height="25.82" rx="6.66"/><path class="cls-2" d="M15.81,21.4a10.05,10.05,0,0,1-2.94-.4,7.12,7.12,0,0,1-3-1.69,7.75,7.75,0,0,1-2.32-5.85c0-5,3.46-8.35,8.61-8.35A9,9,0,0,1,20,5.83a.5.5,0,0,1,.24.57l-.69,2.65a.47.47,0,0,1-.26.32.59.59,0,0,1-.22.05.45.45,0,0,1-.2,0,6.45,6.45,0,0,0-2.61-.52,4,4,0,0,0-3.58,1.81,5,5,0,0,0-.64,2.6c0,2.72,1.58,4.34,4.23,4.34a7.7,7.7,0,0,0,2.62-.44.41.41,0,0,1,.19,0,.53.53,0,0,1,.24.06.51.51,0,0,1,.25.35l.5,2.63a.5.5,0,0,1-.27.54A10.19,10.19,0,0,1,15.81,21.4Z"/><path class="cls-3" d="M16.13,5.61a8.52,8.52,0,0,1,3.65.66l-.69,2.65a7,7,0,0,0-2.81-.56,4.45,4.45,0,0,0-4,2.05,5.48,5.48,0,0,0-.71,2.86c0,3,1.75,4.84,4.73,4.84a8.06,8.06,0,0,0,2.81-.48l.06.31.44,2.32a9.63,9.63,0,0,1-3.79.64,9.68,9.68,0,0,1-2.8-.38A6.68,6.68,0,0,1,10.18,19,7.32,7.32,0,0,1,8,13.46c0-5.05,3.63-7.85,8.11-7.85m0-1C10.68,4.61,7,8.17,7,13.46A8.27,8.27,0,0,0,9.5,19.68a7.58,7.58,0,0,0,3.24,1.8,10.5,10.5,0,0,0,3.07.42,10.3,10.3,0,0,0,4.24-.75,1,1,0,0,0,.53-1.08l-.44-2.32-.06-.31a1,1,0,0,0-.51-.69,1,1,0,0,0-.47-.12,1.09,1.09,0,0,0-.39.08,7.28,7.28,0,0,1-2.42.4c-2.41,0-3.73-1.36-3.73-3.84a4.5,4.5,0,0,1,.57-2.35,3.48,3.48,0,0,1,3.15-1.56,5.94,5.94,0,0,1,2.41.48,1.1,1.1,0,0,0,.4.08,1,1,0,0,0,.44-.1,1,1,0,0,0,.53-.65l.69-2.65a1,1,0,0,0-.49-1.13,9.33,9.33,0,0,0-4.13-.78Z"/><path class="cls-4" d="M19.16,17.94a5.63,5.63,0,0,1-4.88,2.73A5.32,5.32,0,0,1,13,20.52,5.48,5.48,0,0,1,10.18,19,5.07,5.07,0,0,1,8.7,15.36a5.33,5.33,0,0,1,3.57-4.95,5.48,5.48,0,0,0-.71,2.86c0,3,1.75,4.84,4.73,4.84a8.06,8.06,0,0,0,2.81-.48Z"/></g></g></g></svg>