<?xml version="1.0" encoding="utf-8"?>
<!-- Generator: Adobe Illustrator 24.0.0, SVG Export Plug-In . SVG Version: 6.00 Build 0)  -->
<svg version="1.1" id="图层_1" xmlns="http://www.w3.org/2000/svg" xmlns:xlink="http://www.w3.org/1999/xlink" x="0px" y="0px"
	 viewBox="0 0 98 26" style="enable-background:new 0 0 98 26;" xml:space="preserve">
<style type="text/css">
	.st0{fill-rule:evenodd;clip-rule:evenodd;fill:#3A3A3A;}
	.st1{fill-rule:evenodd;clip-rule:evenodd;fill:url(#路径_2_);}
	.st2{fill-rule:evenodd;clip-rule:evenodd;fill:url(#形状结合_1_);}
	.st3{fill-rule:evenodd;clip-rule:evenodd;fill:url(#路径_3_);}
</style>
<title>WPS_LOGO_Normal</title>
<g id="控件">
	<g id="Header" transform="translate(-83.000000, -19.000000)">
		<g id="WPS_LOGO_Normal" transform="translate(83.000000, 19.000000)">
			<g id="编组" transform="translate(44.000000, 5.000000)">
				<g id="编组-6" transform="translate(0.000000, -0.000000)">
					<path id="Combined-Shape" class="st0" d="M15.4,0c0.6,0,1.1,0.5,1.1,1.1v14.3c0,0.6-0.5,1.1-1.1,1.1c-0.4,0-0.7-0.2-0.9-0.4
						l-5.7-5.7l0.9-0.9l0.1-0.1c0.2-0.1,0.3-0.2,0.5-0.2c0.2,0,0.4,0.1,0.6,0.2l0.1,0.1l0,0l3.2,3.2l0-11.7C14.3,0.5,14.8,0,15.4,0z
						 M1.1,0c0.6,0,1.1,0.5,1.1,1.1l0,11.7l5.3-5.3C7.7,7.3,8,7.2,8.3,7.2c0.2,0,0.5,0.1,0.7,0.2l0.1,0.1L10,8.4
						C9.8,8.5,9.5,8.6,9.3,8.8L9.2,8.9L3.1,15l0,0l-1.2,1.2c0,0-0.1,0.1-0.1,0.1c-0.2,0.2-0.4,0.2-0.7,0.2C0.5,16.5,0,16,0,15.4V1.1
						C0,0.5,0.5,0,1.1,0z M21.8,6.9c-0.2,0.3-0.3,0.6-0.3,0.9l0,0.2v7.4c0,0.6-0.5,1.1-1.1,1.1s-1.1-0.5-1.1-1.1V9.1
						c0-1.2,1-2.2,2.2-2.2L21.8,6.9z M48.9,7.2l0.1,0c2.6,0,4.7,2.1,4.7,4.7s-2.1,4.7-4.7,4.7H38.3c-0.6,0-1.1-0.5-1.1-1.1
						s0.5-1.1,1.1-1.1h10.7c1.4,0,2.5-1.1,2.5-2.4l0,0l0-0.2C51.5,9.7,50.4,8.1,48.9,7.2z M52.6,0c0.6,0,1.1,0.5,1.1,1.1
						s-0.5,1.1-1.1,1.1H41.9c-1.4,0-2.5,1.1-2.5,2.4l0,0c0,1.4,1.1,2.5,2.4,2.5l0,0H46l0.2,0c1.7,0.1,3.1,1,3.9,2.5
						c-0.3-0.2-0.7-0.2-1-0.3l-7.2,0c-2.6,0-4.7-2.1-4.7-4.7S39.3,0,41.9,0H52.6z M31.3,0c2.5,0,4.5,2,4.5,4.5s-2,4.5-4.5,4.5l-9,0
						l0-1.1c0-0.6,0.4-1,1-1.1l0.1,0h7.9c1.3,0,2.3-1,2.3-2.3c0-1.3-1-2.3-2.3-2.3l-10.9,0c-0.6,0-1.1-0.5-1.1-1.1S19.8,0,20.4,0
						H31.3z"/>
				</g>
			</g>
			<g id="编组-7" transform="translate(0.026223, 0.000000)">
				
					<linearGradient id="路径_2_" gradientUnits="userSpaceOnUse" x1="-1119.6013" y1="590.4201" x2="-1119.6013" y2="591.4138" gradientTransform="matrix(38.4295 0 0 -25.945 43044.9102 15344.2529)">
					<stop  offset="0" style="stop-color:#FF5100"/>
					<stop  offset="1" style="stop-color:#FF1522"/>
				</linearGradient>
				<path id="路径" class="st1" d="M23.2,24.2l-3.1-6.4l2.6-5.5l3,6.2h0l6.2-13c0.1-0.3,0-0.7-0.3-0.8c-0.1,0-0.2-0.1-0.3-0.1
					h-6.8l-9.4,19.6c-0.6,1.4-2.2,2-3.6,1.5c-0.7-0.3-1.2-0.8-1.5-1.4l0-0.1L0.2,3.5c-0.6-1.2,0-2.7,1.2-3.3C1.8,0.1,2.2,0,2.5,0
					h11.8c1.5,0,2.8,0.8,3.5,2.1l0.5,1l-2.6,5.5l-1.6-3.3c-0.2-0.4-0.7-0.7-1.1-0.7H7c-0.3,0-0.6,0.3-0.6,0.6c0,0.1,0,0.2,0.1,0.3
					l6.2,13h0l3.9-8.1l0,0L19.2,5l0,0l1.4-2.8C21.2,0.8,22.5,0,24,0h11.9c1.4,0,2.5,1.1,2.5,2.5c0,0.4-0.1,0.7-0.2,1.1l-9.9,20.7h0
					l0,0c-0.6,1.4-2.2,2.1-3.6,1.5C24,25.5,23.5,25,23.2,24.2L23.2,24.2z"/>
				
					<linearGradient id="形状结合_1_" gradientUnits="userSpaceOnUse" x1="-1062.4604" y1="562.2521" x2="-1062.4604" y2="563.021" gradientTransform="matrix(13.2084 0 0 -11.5019 14056.0947 6476.1709)">
					<stop  offset="0" style="stop-color:#FD7821;stop-opacity:0"/>
					<stop  offset="0.4893" style="stop-color:#FF5100"/>
					<stop  offset="1" style="stop-color:#FF9B27"/>
				</linearGradient>
				<path id="形状结合" class="st2" d="M21.3,11.5h-5.3l0.5-1l0,0L19.2,5l1.4-2.8C21.2,0.8,22.5,0,24,0h5.3l-0.2,0
					c-1.4,0.1-2.7,0.9-3.2,2.1l0,0L21.6,11L21.3,11.5z"/>
				
					<linearGradient id="路径_3_" gradientUnits="userSpaceOnUse" x1="-1065.9885" y1="562.6346" x2="-1066.4883" y2="563.16" gradientTransform="matrix(13.8054 0 0 -11.5451 14751.1797 6502.7104)">
					<stop  offset="0" style="stop-color:#FD7821;stop-opacity:0"/>
					<stop  offset="1" style="stop-color:#881000;stop-opacity:0.9245"/>
				</linearGradient>
				<path id="路径_1_" class="st3" d="M35.9,0c1.4,0,2.5,1.1,2.5,2.5c0,0.4-0.1,0.7-0.2,1.1l-3.8,8l-5-0.5L32,5.6
					c0.1-0.3,0-0.7-0.3-0.8c-0.1,0-0.2-0.1-0.3-0.1l-6.8,0l1.2-2.5C26.4,0.9,27.7,0,29.2,0l0.1,0H35.9z"/>
			</g>
		</g>
	</g>
</g>
</svg>
