<?xml version="1.0" encoding="utf-8"?>
<svg width="20px" height="20px" viewBox="0 0 20 20" version="1.1" xmlns:xlink="http://www.w3.org/1999/xlink" xmlns="http://www.w3.org/2000/svg">
  <defs>
    <path d="M10 20C15.5228 20 20 15.5228 20 10C20 4.47715 15.5228 0 10 0C4.4772 0 0 4.47715 0 10C0 15.5228 4.4772 20 10 20L10 20Z" id="path_1" />
    <path d="M7.02478 7C7.02478 5.34315 8.36793 4 10.0248 4C11.6816 4 13.0248 5.34315 13.0248 7C13.0248 8.65685 11.6816 10 10.0248 10C8.36793 10 7.02478 8.65685 7.02478 7Z" id="path_2" />
    <clipPath id="clip_1">
      <use xlink:href="#path_1" />
    </clipPath>
    <clipPath id="clip_2">
      <use xlink:href="#path_2" />
    </clipPath>
  </defs>
  <g id="avatar">
    <g id="Shape">
      <use stroke="none" fill="#EBEBEB" xlink:href="#path_1" />
      <g clip-path="url(#clip_1)">
        <use xlink:href="#path_1" fill="none" stroke="#000000" stroke-opacity="0.6509804" stroke-width="2" />
      </g>
    </g>
    <path d="M6 14.0909C6 12.5847 7.0745 11.3637 8.4 11.3637L11.6 11.3637C12.9255 11.3637 14 12.5847 14 14.0909L14 14.5454C14 14.7965 13.8209 15 13.6 15C13.3791 15 13.2 14.7965 13.2 14.5454L13.2 14.0909C13.2 13.0867 12.4837 12.2727 11.6 12.2727L8.4 12.2727C7.5163 12.2727 6.8 13.0867 6.8 14.0909L6.8 14.5454C6.8 14.7965 6.6209 15 6.4 15C6.1791 15 6 14.7965 6 14.5454L6 14.0909L6 14.0909Z" id="Shape" fill="#000000" fill-rule="evenodd" stroke="none" />
    <g id="Oval">
      <g clip-path="url(#clip_2)">
        <use xlink:href="#path_2" fill="none" stroke="#000000" stroke-width="1.6" />
      </g>
    </g>
  </g>
</svg>