<?xml version="1.0" encoding="UTF-8" ?>
<!DOCTYPE svg PUBLIC "-//W3C//DTD SVG 1.1//EN" "http://www.w3.org/Graphics/SVG/1.1/DTD/svg11.dtd">
<svg width="72pt" height="72pt" viewBox="0 0 72 72" version="1.1" xmlns="http://www.w3.org/2000/svg">
<g id="#ffffffff">
<path fill="#ffffff" opacity="1.00" d=" M 27.34 5.58 C 41.38 1.12 57.78 8.42 63.96 21.76 C 68.46 30.86 68.03 42.18 62.84 50.91 C 56.95 61.20 44.79 67.49 32.98 66.09 C 18.63 64.96 6.29 52.52 5.27 38.17 C 3.59 23.85 13.49 9.41 27.34 5.58 M 28.37 11.55 C 19.42 14.32 12.54 22.56 11.37 31.84 C 10.35 38.88 12.51 46.36 17.28 51.66 C 22.28 57.54 30.17 60.81 37.87 60.18 C 46.20 59.67 54.11 54.61 58.01 47.21 C 62.00 40.08 62.06 30.94 58.22 23.74 C 52.96 13.13 39.56 7.66 28.37 11.55 Z" />
<path fill="#ffffff" opacity="1.00" d=" M 33.10 25.00 C 33.37 22.12 38.64 22.12 38.91 25.01 C 39.16 29.70 38.92 34.40 39.00 39.10 C 41.39 37.10 43.34 34.50 46.11 33.00 C 48.34 32.82 50.92 35.83 49.00 37.74 C 45.15 41.68 41.20 45.59 36.95 49.11 C 36.49 49.12 35.58 49.15 35.12 49.16 C 30.64 45.43 26.72 41.03 22.64 36.86 C 22.92 34.87 24.55 32.33 26.89 33.22 C 29.26 34.69 30.97 36.98 33.00 38.87 C 33.10 34.25 32.83 29.62 33.10 25.00 Z" />
</g>
</svg>
