<svg width="28" height="28" viewBox="0 0 28 28" fill="none" xmlns="http://www.w3.org/2000/svg">
<rect width="28" height="28" rx="5" fill="url(#paint0_linear_311_642)" fill-opacity="0.1"/>
<rect x="0.5" y="0.5" width="27" height="27" rx="4.5" stroke="url(#paint1_linear_311_642)" stroke-opacity="0.2"/>
<g clip-path="url(#clip0_311_642)">
<g opacity="0.5" filter="url(#filter0_f_311_642)">
<path d="M5.78772 21.0362C7.69591 20.3889 11.2841 19.5483 14.285 21.0006C14.3521 21.033 14.4256 21.0498 14.5 21.0498C14.5744 21.0498 14.6479 21.033 14.715 21.0006C17.7159 19.5482 21.3041 20.389 23.2123 21.0362C23.8504 21.2526 24.5625 20.7864 24.5625 20.1128V10.1133C24.5625 9.56884 24.2428 9.0681 23.7241 8.90166C21.0081 8.03009 17.2027 8.10915 14.6843 9.13899C14.5662 9.18742 14.4338 9.18742 14.3157 9.13899C11.7973 8.10915 7.99185 8.03009 5.27588 8.90166C4.75721 9.0681 4.4375 9.56889 4.4375 10.1133V20.1128C4.4375 20.7864 5.14965 21.2526 5.78772 21.0362Z" fill="#3ACC92" fill-opacity="0.8"/>
</g>
<path d="M22.2755 17.409C22.2755 17.6822 22.0359 17.8938 21.7637 17.869C18.2862 17.5514 16.8779 18.3107 14.9235 19.4827C14.6592 19.6412 14.3344 19.6528 14.0481 19.5383C11.7346 18.6124 8.39849 18.5844 6.02325 19.4544C5.70628 19.5703 5.35229 19.3455 5.35229 19.0082V8.41911C5.35229 8.06805 5.55125 7.74385 5.87873 7.61681C8.26171 6.6916 11.6871 6.70144 14.0481 7.64623C14.3344 7.76078 14.6592 7.7491 14.9235 7.59058C16.8244 6.45109 18.2085 5.70637 21.4825 6.02864C21.9371 6.07343 22.2756 6.46335 22.2756 6.92052V17.409H22.2755Z" fill="#3ACC92"/>
<path d="M14.0426 7.64398L14.0481 7.64623C14.3344 7.76078 14.6591 7.7491 14.9235 7.59057C14.935 7.58383 14.946 7.57705 14.9574 7.57027V19.4623C14.9459 19.469 14.9349 19.4758 14.9235 19.4826C14.6591 19.6412 14.3344 19.6528 14.0481 19.5383L14.0426 19.5361V7.64398ZM7.78237 12.4183C7.48184 12.4889 7.18176 12.2685 7.18176 11.9597V11.501C7.18176 11.2011 7.37574 10.9333 7.6671 10.8609C9.12113 10.4988 10.7311 10.4988 12.1852 10.8609C12.4765 10.9333 12.6705 11.2011 12.6705 11.501V11.9597C12.6705 12.2685 12.3704 12.4889 12.0699 12.4183C10.685 12.0935 9.16731 12.0935 7.78237 12.4183ZM7.78237 16.0774C7.48184 16.148 7.18176 15.9275 7.18176 15.6188V15.16C7.18176 14.8602 7.37574 14.5925 7.6671 14.52C9.12113 14.1579 10.7311 14.1579 12.1852 14.52C12.4765 14.5925 12.6705 14.8602 12.6705 15.16V15.6188C12.6705 15.9275 12.3704 16.148 12.0699 16.0774C10.685 15.7526 9.16731 15.7526 7.78237 16.0774Z" fill="white"/>
</g>
<defs>
<filter id="filter0_f_311_642" x="2.4375" y="6.30236" width="24.125" height="16.7874" filterUnits="userSpaceOnUse" color-interpolation-filters="sRGB">
<feFlood flood-opacity="0" result="BackgroundImageFix"/>
<feBlend mode="normal" in="SourceGraphic" in2="BackgroundImageFix" result="shape"/>
<feGaussianBlur stdDeviation="1" result="effect1_foregroundBlur_311_642"/>
</filter>
<linearGradient id="paint0_linear_311_642" x1="-14" y1="14" x2="14" y2="42" gradientUnits="userSpaceOnUse">
<stop stop-color="#3CE19C"/>
<stop offset="1" stop-color="#24CA8B"/>
</linearGradient>
<linearGradient id="paint1_linear_311_642" x1="14" y1="0" x2="14" y2="28" gradientUnits="userSpaceOnUse">
<stop stop-color="#49F28D"/>
<stop offset="1" stop-color="#3ACC92"/>
</linearGradient>
<clipPath id="clip0_311_642">
<rect width="23" height="23" fill="white" transform="translate(3 2)"/>
</clipPath>
</defs>
</svg>

